<svg id="Layer_1" enable-background="new 0 0 512 512" height="512" viewBox="0 0 512 512" width="512" xmlns="http://www.w3.org/2000/svg"><g><path d="m456.833 0h-401.666c-30.419 0-55.167 24.748-55.167 55.167v24.1c0 8.284 6.716 15 15 15h482c8.284 0 15-6.716 15-15v-24.1c0-30.419-24.748-55.167-55.167-55.167z" fill="#f0f1f3"/><path d="m512 79.267v-24.1c0-30.419-24.748-55.167-55.167-55.167h-200.833v94.267h241c8.284 0 15-6.716 15-15z" fill="#dfe3ec"/><path d="m456.833 512h-401.666c-30.419 0-55.167-24.748-55.167-55.167v-377.566c0-8.284 6.716-15 15-15h482c8.284 0 15 6.716 15 15v377.567c0 30.418-24.748 55.166-55.167 55.166z" fill="#2d3c5a"/><path d="m512 456.833v-377.566c0-8.284-6.716-15-15-15h-241v447.733h200.833c30.419 0 55.167-24.748 55.167-55.167z" fill="#212d49"/><path d="m147.55 345.433h-8.033c-7.3 0-13.116-5.926-13.116-13.116 0-7.232 5.884-13.117 13.116-13.117h20.083c8.284 0 15-6.716 15-15s-6.716-15-15-15h-20.083c-23.774 0-43.116 19.342-43.116 43.117 0 23.25 18.776 43.116 43.116 43.116h8.033c7.261 0 13.117 5.88 13.117 13.117 0 7.232-5.885 13.117-13.117 13.117h-20.083c-8.284 0-15 6.716-15 15s6.716 15 15 15h20.083c23.774 0 43.117-19.342 43.117-43.117 0-23.818-19.281-43.117-43.117-43.117z" fill="#93eb7f"/><path d="m251.983 345.433h-8.033c-7.3 0-13.117-5.925-13.117-13.116 0-7.232 5.885-13.117 13.117-13.117h20.083c8.284 0 15-6.716 15-15s-6.716-15-15-15h-20.083c-23.774 0-43.117 19.342-43.117 43.117 0 23.252 18.782 43.116 43.117 43.116h8.033c7.26 0 13.116 5.88 13.116 13.117 0 7.232-5.884 13.117-13.116 13.117h-20.083c-8.284 0-15 6.716-15 15s6.716 15 15 15h20.083c23.774 0 43.116-19.342 43.116-43.117.001-23.817-19.279-43.117-43.116-43.117z" fill="#93eb7f"/><path d="m400.6 289.2c-8.284 0-15 6.716-15 15v41.233h-34.267v-41.233c0-8.284-6.716-15-15-15s-15 6.716-15 15v112.466c0 8.284 6.716 15 15 15s15-6.716 15-15v-41.233h34.267v41.233c0 8.284 6.716 15 15 15s15-6.716 15-15v-112.466c0-8.284-6.716-15-15-15z" fill="#3cdc79"/><path d="m239.934 238.867h160.666c8.284 0 15-6.716 15-15s-6.716-15-15-15h-160.666c-8.284 0-15 6.716-15 15s6.715 15 15 15z" fill="#93eb7f"/><path d="m206.733 183.7c0-5.682-3.21-10.875-8.292-13.417l-80.333-40.167c-7.41-3.705-16.419-.701-20.124 6.708-3.705 7.41-.702 16.42 6.708 20.125l53.5 26.75-53.5 26.75c-7.41 3.705-10.413 12.715-6.708 20.125 3.716 7.434 12.737 10.402 20.124 6.708l80.333-40.167c5.082-2.539 8.292-7.733 8.292-13.415z" fill="#93eb7f"/><g fill="#3cdc79"><path d="m295.1 388.55c0-22.462-17.152-40.899-39.1-42.924v30.438c5.286 1.697 9.1 6.647 9.1 12.486 0 5.831-3.827 10.781-9.1 12.482v30.441c21.897-2.033 39.1-20.504 39.1-42.923z"/><path d="m264.033 319.2c8.284 0 15-6.716 15-15s-6.716-15-15-15h-8.033v30z"/><path d="m415.6 223.867c0-8.284-6.716-15-15-15h-144.6v30h144.6c8.284 0 15-6.716 15-15z"/></g></g></svg>